<svg width="14" height="14" viewBox="0 0 14 14" fill="none" xmlns="http://www.w3.org/2000/svg">
<path d="M10.452 8.35339C10.3009 8.4998 10.2315 8.71156 10.2659 8.91922L10.7845 11.7892C10.8283 12.0325 10.7256 12.2786 10.522 12.4192C10.3225 12.5651 10.0571 12.5826 9.83953 12.4659L7.25594 11.1184C7.16611 11.0706 7.06636 11.0449 6.96428 11.042H6.80619C6.75136 11.0501 6.69769 11.0676 6.64869 11.0945L4.06453 12.4484C3.93678 12.5126 3.79211 12.5353 3.65036 12.5126C3.30503 12.4472 3.07461 12.1182 3.13119 11.7711L3.65036 8.90114C3.68478 8.69172 3.61536 8.47881 3.46428 8.33005L1.35786 6.28839C1.18169 6.11747 1.12044 5.86081 1.20094 5.62922C1.27911 5.39822 1.47861 5.22964 1.71953 5.19172L4.61869 4.77114C4.83919 4.74839 5.03286 4.61422 5.13203 4.41589L6.40953 1.79672C6.43986 1.73839 6.47894 1.68472 6.52619 1.63922L6.57869 1.59839C6.60611 1.56806 6.63761 1.54297 6.67261 1.52256L6.73619 1.49922L6.83536 1.45839H7.08094C7.30028 1.48114 7.49336 1.61239 7.59428 1.80839L8.88869 4.41589C8.98203 4.60664 9.16344 4.73906 9.37286 4.77114L12.272 5.19172C12.517 5.22672 12.7218 5.39589 12.8029 5.62922C12.8793 5.86314 12.8134 6.11981 12.6337 6.28839L10.452 8.35339Z" fill="#FFAC0C"/>
</svg>
